<svg xmlns="http://www.w3.org/2000/svg" xmlns:xlink="http://www.w3.org/1999/xlink" width="116" height="116"><defs><clipPath id="clip_0"><path clip-rule="evenodd" d="M-129-223h373.762v664.799H-129z"/></clipPath></defs><g clip-path="url(#clip_0)"><path fill="#B1C3D5" d="M110.451 5.16c-3.409-3.224-7.509-4.837-12.3-4.837H38.164c-4.791 0-8.569 1.567-11.333 4.7-2.765 3.132-4.147 7.094-4.147 11.886v46.44c0 4.607 1.705 8.523 5.114 11.748 3.41 3.225 7.51 4.838 12.301 4.838h27.92c2.395 0 3.962.368 4.699 1.105L93.45 97.626V79.935h4.7c4.791 0 8.891-1.613 12.3-4.838 3.41-3.225 5.114-7.141 5.114-11.748v-46.44c0-4.607-1.704-8.523-5.114-11.748zM75.76 93.204l-7.188-4.976c-1.474-.921-3.04-1.382-4.699-1.382H31.531c-4.791 0-8.938-1.566-12.44-4.699-3.5-3.133-5.251-7.003-5.251-11.61v-27.92h-.553c-3.502 0-6.496 1.198-8.984 3.594C1.815 48.606.57 51.554.57 55.056v35.66c0 3.316 1.29 6.035 3.87 8.154 2.58 2.119 5.713 3.18 9.399 3.18h4.422v13.267l14.651-12.438a7.919 7.919 0 013.594-.83h24.878c3.502 0 6.635-.783 9.399-2.35 2.764-1.566 4.423-3.732 4.976-6.496z" fill-rule="evenodd"/></g></svg>