<?xml version="1.0" encoding="utf-8" ?>
<svg xmlns="http://www.w3.org/2000/svg" xmlns:xlink="http://www.w3.org/1999/xlink" width="116" height="116">
	<defs>
		<clipPath id="clip_0">
			<rect x="-129" y="-223" width="373.76248" height="664.79889" clip-rule="evenodd"/>
		</clipPath>
	</defs>
	<g clip-path="url(#clip_0)">
		<path fill="rgb(177,195,213)" stroke="none" transform="matrix(0.9967 0 0 0.9967 0.570999 0.32309)" d="M110.244 4.85352C106.824 1.61782 102.71 0 97.9023 0L37.7188 0C32.9114 0 29.1211 1.5716 26.3477 4.71484C23.5742 7.85809 22.1875 11.8333 22.1875 16.6406L22.1875 63.2344C22.1875 67.8568 23.8978 71.7858 27.3184 75.0215C30.7389 78.2572 34.8528 79.875 39.6602 79.875L67.6719 79.875C70.0755 79.875 71.6471 80.2448 72.3867 80.9844L93.1875 97.625L93.1875 79.875L97.9023 79.875C102.71 79.875 106.824 78.2572 110.244 75.0215C113.665 71.7858 115.375 67.8568 115.375 63.2344L115.375 16.6406C115.375 12.0182 113.665 8.08921 110.244 4.85352ZM75.4375 93.1875L68.2266 88.1953C66.7474 87.2708 65.1758 86.8086 63.5117 86.8086L31.0625 86.8086C26.2552 86.8086 22.0951 85.237 18.582 82.0938C15.069 78.9505 13.3125 75.0677 13.3125 70.4453L13.3125 42.4336L12.7578 42.4336C9.24477 42.4336 6.24025 43.6354 3.74414 46.0391C1.24803 48.4427 0 51.401 0 54.9141L0 90.6914C0 94.0195 1.29426 96.7467 3.88281 98.873C6.47137 100.999 9.61456 102.063 13.3125 102.063L17.75 102.063L17.75 115.375L32.4492 102.895C33.5586 102.34 34.7604 102.063 36.0547 102.063L61.0156 102.063C64.5287 102.063 67.6719 101.277 70.4453 99.7051C73.2188 98.1335 74.8828 95.961 75.4375 93.1875Z" fill-rule="evenodd"/>
	</g>
</svg>
